<html>
<head>
<meta charset="UTF-8">
<meta name="viewport" content="width=device-width, initial-scale=1.0"/>

<style>
.comment
{
    padding-left: 20px;
    margin-top: 4px;
    margin-right: 4px;
    margin-bottom: 4px;
    border: 2px #000 solid;
}
.submission
{
    border: 4px #00f solid;
    padding-left: 20px;
}
.hidden
{
    display: none;
}
</style>
</head>
<body><div class="submission" id="t3_6yb5o7">
    <p class="userinfo">
        <a href="https://www.reddit.com/u/Ed_ButteredToast">Ed_ButteredToast</a>
        <span class="score"> | 30 points</span>
        <span class="timestamp"> | Sep 05 2017 21:33:00</span>
    </p>
    <strong>[MUSIC] Taylor Swift - '...Ready For It?' from the Album 'reputation' (2017) [FLAC] [16bit 44.1kHz 2CH] [MP3 320kbps] [26.7MB/9.19MB]</strong>
    <p><h6>https://itunes.apple.com/us/album/ready-for-it-single/id1278522951</h6>
<h1><a href="http://links.snahp.it/719_">LINK HERE</a></h1>
<p><strong>Note</strong>: <em>Password to the Snahp.it link</em> <strong><em>and</em></strong> <em>the rar files is the same and is the last name of the artist</em> <strong><em>"swift"</em></strong> <em>spelled backwards e.g WEBSITE = ETISBEW. Also when you access the MEGA link, replace "xxxx" with "mega". There are 2 password protected RAR files. Use the password (same for all parts) and extracting part 1 will automatically extract the other part too and in the end you'll be left with 1 FLAC file, 1 MP3 file plus 4 wallpapers that i included in the 2 rar packs (2,2).</em></p>
<h1>Link Encoded in Base64</h1>
<p>1= <code>aHR0cHM6Ly94eHh4Lm56LyNGITl2UndYYXJa</code></p>
<p>2= <code>IU5GdkxjcHVaZWJublVnM0tud253b0E</code></p>
<p><strong>How to decode?</strong></p>
<p><em>Go to https://www.base64decode.org and paste 1 and 2 (without any space) where it says "Type or (paste) here..." and click decode. You'll receive a link in the lower box. In that link, replace xxxx with MEGA.</em></p>
<h2>---</h2>
<h2>---</h2>
<h2>---</h2>
<h2>---</h2>
<h2>---</h2>
<h1><code>General</code></h1>
<p><code>Complete name                  : ... Ready For It-.flac</code></p>
<p><code>Format                         : FLAC</code></p>
<p><code>Format/Info                    : Free Lossless Audio Codec</code></p>
<p><code>File size                      : 26.8 MiB</code></p>
<p><code>Duration                       : 3mn 28s</code></p>
<p><code>Overall bit rate mode          : Variable</code></p>
<p><code>Overall bit rate               : 1 079 Kbps</code></p>
<p><code>Album                          : reputation</code></p>
<p><code>Album/Performer                : Taylor Swift</code></p>
<p><code>Part                           : 1</code></p>
<p><code>Part/Total                     : 1</code></p>
<p><code>Track name                     : …Ready for It?</code></p>
<p><code>Track name/Position            : 1</code></p>
<p><code>Track name/Total               : 1</code></p>
<p><code>Performer                      : Taylor Swift</code></p>
<p><code>Composer                       : Taylor Swift, Jack Antonoff, Richard Fairbrass, Fred Fairbrass &amp; Rob Manzoli</code></p>
<p><code>Genre                          : Pop</code></p>
<p><code>Recorded date                  : 2017</code></p>
<p><code>Copyright                      : 2017 Big Machine Label Group, LLC</code></p>
<p><code>Cover                          : Yes</code></p>
<p><code>Cover description              : cover.jpg</code></p>
<p><code>Cover type                     : Cover (front)</code></p>
<p><code>Cover MIME                     : image/jpeg</code></p>
<p><code>Artistsort                     : Swift, Taylor</code></p>
<h1><code>Audio</code></h1>
<p><code>Format                         : FLAC</code></p>
<p><code>Format/Info                    : Free Lossless Audio Codec</code></p>
<p><code>Duration                       : 3mn 28s</code></p>
<p><code>Bit rate mode                  : Variable</code></p>
<p><code>Bit rate                       : 1 064 Kbps</code></p>
<p><code>Channel(s)                     : 2 channels</code></p>
<p><code>Sampling rate                  : 44.1 KHz</code></p>
<p><code>Bit depth                      : 16 bits</code></p>
<p><code>Stream size                    : 26.4 MiB (99%)</code></p>
<p><code>Writing library                : libFLAC 1.2.1 (UTC 2007-09-17)</code></p>
<h2>---</h2>
<hr>
<h1><code>General</code></h1>
<p><code>Complete name                  : ...Ready For It-.mp3</code></p>
<p><code>Format                         : MPEG Audio</code></p>
<p><code>File size                      : 9.19 MiB</code></p>
<p><code>Duration                       : 3mn 28s</code></p>
<p><code>Overall bit rate mode          : Constant</code></p>
<p><code>Overall bit rate               : 320 Kbps</code></p>
<p><code>Album                          : reputation</code></p>
<p><code>Album/Performer                : Taylor Swift</code></p>
<p><code>Part/Position                  : 1</code></p>
<p><code>Part/Total                     : 1</code></p>
<p><code>Track name                     : ... Ready For It?</code></p>
<p><code>Track name/Position            : 1</code></p>
<p><code>Performer                      : Taylor Swift</code></p>
<p><code>Genre                          : Pop</code></p>
<p><code>Recorded date                  : 2017</code></p>
<p><code>Writing library                : LAME3.99.5</code></p>
<p><code>Copyright                      : 2017 Big Machine Label Group, LLC</code></p>
<p><code>Cover                          : Yes</code></p>
<p><code>Cover type                     : Cover (front)</code></p>
<p><code>Cover MIME                     : image/jpeg</code></p>
<h1><code>Audio</code></h1>
<p><code>Format                         : MPEG Audio</code></p>
<p><code>Format version                 : Version 1</code></p>
<p><code>Format profile                 : Layer 3</code></p>
<p><code>Mode                           : Joint stereo</code></p>
<p><code>Mode extension                 : MS Stereo</code></p>
<p><code>Duration                       : 3mn 28s</code></p>
<p><code>Bit rate mode                  : Constant</code></p>
<p><code>Bit rate                       : 320 Kbps</code></p>
<p><code>Channel(s)                     : 2 channels</code></p>
<p><code>Sampling rate                  : 44.1 KHz</code></p>
<p><code>Compression mode               : Lossy</code></p>
<p><code>Stream size                    : 7.94 MiB (86%)</code></p>
<p><code>Writing library                : LAME3.99.5</code></p></p>
    <p class="toolbar">
        <a href="https://www.reddit.com/r/megalinks/comments/6yb5o7">permalink</a>
    </p>
</div>
<div class="comment" id="t1_dmmdhvp">
    <p class="userinfo">
        <a
        class="toggle_hide_button"
        href="javascript:void(0)"
        onclick="toggle_collapse(this.parentElement.parentElement)">[-]
        </a>
        <a href="https://www.reddit.com/u/DynamiteG">DynamiteG</a>
        <span class="score"> | 4 points</span>
        <span class="timestamp"> | Sep 06 2017 02:13:54</span>
    </p>
    <div class="collapsible">
        <p>🐍</p>
        <p class="toolbar">
            <a href="https://www.reddit.com/r/megalinks/comments/6yb5o7/_/dmmdhvp">permalink</a>
        </p>
        <div class="comment" id="t1_dmmkxt2">
    <p class="userinfo">
        <a
        class="toggle_hide_button"
        href="javascript:void(0)"
        onclick="toggle_collapse(this.parentElement.parentElement)">[-]
        </a>
        <a href="https://www.reddit.com/u/Ed_ButteredToast">Ed_ButteredToast</a>
        <span class="score"> | 2 points</span>
        <span class="timestamp"> | Sep 06 2017 05:07:42</span>
    </p>
    <div class="collapsible">
        <blockquote>
<p>this track</p>
</blockquote>
<p>🐍🔥🔥🔥</p>
        <p class="toolbar">
            <a href="https://www.reddit.com/r/megalinks/comments/6yb5o7/_/dmmkxt2">permalink</a>
        </p>
        
    </div>
</div>
    </div>
</div>

<div class="comment" id="t1_dmmrlqf">
    <p class="userinfo">
        <a
        class="toggle_hide_button"
        href="javascript:void(0)"
        onclick="toggle_collapse(this.parentElement.parentElement)">[-]
        </a>
        <a href="https://www.reddit.com/u/Xentzuken">Xentzuken</a>
        <span class="score"> | 3 points</span>
        <span class="timestamp"> | Sep 06 2017 09:49:37</span>
    </p>
    <div class="collapsible">
        <p>I'm not a big Taylor Swift fan but so far I've really enjoyed these two singles from her upcoming album.. Liking the <em>new</em> Taylor Swift!</p>
        <p class="toolbar">
            <a href="https://www.reddit.com/r/megalinks/comments/6yb5o7/_/dmmrlqf">permalink</a>
        </p>
        <div class="comment" id="t1_dmmtdj6">
    <p class="userinfo">
        <a
        class="toggle_hide_button"
        href="javascript:void(0)"
        onclick="toggle_collapse(this.parentElement.parentElement)">[-]
        </a>
        <a href="https://www.reddit.com/u/Ed_ButteredToast">Ed_ButteredToast</a>
        <span class="score"> | 3 points</span>
        <span class="timestamp"> | Sep 06 2017 11:07:58</span>
    </p>
    <div class="collapsible">
        <p>🐍 but with a bit of 🌶🔥 </p>
<p>I hope it doesn't go downhill from here. Also that bit of rapping was quite good actually. </p>
        <p class="toolbar">
            <a href="https://www.reddit.com/r/megalinks/comments/6yb5o7/_/dmmtdj6">permalink</a>
        </p>
        
    </div>
</div>
    </div>
</div>
</body>

<script>
function toggle_collapse(comment_div)
{
    var button = comment_div.getElementsByClassName("toggle_hide_button")[0];
    var collapsible = comment_div.getElementsByClassName("collapsible")[0];
    if (collapsible.classList.contains("hidden"))
    {
        collapsible.classList.remove("hidden");
        button.innerText = "[-]";
    }
    else
    {
        collapsible.classList.add("hidden");
        button.innerText = "[+]";
    }
}
</script>
</html>
